<svg id="visual" viewBox="0 0 900 600" width="900" height="600" xmlns="http://www.w3.org/2000/svg" xmlns:xlink="http://www.w3.org/1999/xlink" version="1.1"><rect x="0" y="0" width="900" height="600" fill="#FFFFFF"></rect><defs><linearGradient id="grad1_0" x1="33.3%" y1="0%" x2="100%" y2="100%"><stop offset="20%" stop-color="#ffffff" stop-opacity="1"></stop><stop offset="80%" stop-color="#ffffff" stop-opacity="1"></stop></linearGradient></defs><defs><linearGradient id="grad2_0" x1="0%" y1="0%" x2="66.7%" y2="100%"><stop offset="20%" stop-color="#ffffff" stop-opacity="1"></stop><stop offset="80%" stop-color="#ffffff" stop-opacity="1"></stop></linearGradient></defs><g transform="translate(900, 0)"><path d="M0 405.6C-41.1 396.9 -82.2 388.1 -122.4 376.6C-162.6 365.1 -201.8 350.9 -238.4 328.2C-275 305.4 -308.9 274 -325.2 236.3C-341.6 198.6 -340.5 154.5 -350.9 114C-361.4 73.6 -383.5 36.8 -405.6 0L0 0Z" fill="#FBAE3C"></path></g><g transform="translate(0, 600)"><path d="M0 -405.6C43.7 -403.2 87.3 -400.8 125.3 -385.8C163.3 -370.7 195.7 -342.9 230.4 -317.1C265.1 -291.3 302.3 -267.4 321.2 -233.4C340.1 -199.3 340.8 -154.9 351.9 -114.3C362.9 -73.7 384.3 -36.9 405.6 0L0 0Z" fill="#FBAE3C"></path></g></svg>