<svg id="visual" viewBox="0 0 900 600" width="900" height="600" xmlns="http://www.w3.org/2000/svg" xmlns:xlink="http://www.w3.org/1999/xlink" version="1.1"><g><g transform="translate(63 179)"><path d="M156.2 -139.2C188.4 -84.2 190.8 -20 176.9 40.2C163 100.4 132.8 156.7 81.4 189.3C29.9 221.9 -42.8 230.8 -86.4 201.4C-130.1 171.9 -144.8 104.2 -161 36C-177.1 -32.2 -194.7 -100.8 -168.2 -154.5C-141.6 -208.2 -70.8 -247.1 -4.4 -243.6C62 -240.1 124 -194.2 156.2 -139.2Z" fill="#F7760E"></path></g><g transform="translate(596 484)"><path d="M48.1 -38.4C58.8 -24.9 61.5 -5.1 58.3 15C55.1 35.1 45.8 55.6 28.6 66.6C11.4 77.6 -13.7 79.2 -29.7 68.8C-45.8 58.4 -52.6 36 -54.5 15.9C-56.3 -4.3 -53.2 -22.1 -43.3 -35.4C-33.4 -48.8 -16.7 -57.6 1 -58.4C18.7 -59.2 37.4 -51.9 48.1 -38.4Z" fill="#F7760E"></path></g></g></svg>