<svg id="visual" viewBox="0 0 900 600" width="900" height="600" xmlns="http://www.w3.org/2000/svg" xmlns:xlink="http://www.w3.org/1999/xlink" version="1.1"><g><g transform="translate(402 374)"><path d="M131.8 -110.1C161.9 -67.5 171 -13.2 161.5 40.2C152 93.6 123.8 146 77.1 173.6C30.5 201.2 -34.5 204 -84.1 178.6C-133.6 153.2 -167.6 99.6 -181 41.2C-194.3 -17.1 -187.1 -80.3 -153.5 -123.8C-119.9 -167.3 -60 -191.1 -4.5 -187.5C50.9 -183.8 101.8 -152.8 131.8 -110.1Z" fill="#FFBD35"></path></g><g transform="translate(5 108)"><path d="M102.2 -83.2C128.8 -48.3 144 -6 138.6 37.2C133.2 80.4 107.2 124.5 66.9 147C26.6 169.4 -27.9 170.3 -67.1 148C-106.2 125.8 -130 80.5 -135.3 36.8C-140.5 -6.9 -127.2 -48.9 -101.6 -83.6C-76 -118.4 -38 -145.9 -0.1 -145.9C37.9 -145.8 75.7 -118.2 102.2 -83.2Z" fill="#FFBD35"></path></g><g transform="translate(803 113)"><path d="M113.3 -89.2C139 -58.1 146.6 -11.5 135 27.3C123.4 66.2 92.5 97.1 54.7 116.4C16.9 135.6 -27.9 143.2 -64.8 128C-101.8 112.7 -131 74.6 -137.1 35C-143.1 -4.7 -126.2 -45.9 -99.5 -77.1C-72.8 -108.3 -36.4 -129.6 3.7 -132.6C43.8 -135.5 87.6 -120.2 113.3 -89.2Z" fill="#FFBD35"></path></g><g transform="translate(818 580)"><path d="M130.5 -103.9C157.9 -69.6 161.3 -16 147.5 29.5C133.8 75 103 112.4 60.6 137C18.3 161.7 -35.5 173.5 -78.1 155.5C-120.7 137.5 -152.2 89.7 -163.1 38.2C-174.1 -13.3 -164.6 -68.5 -134 -103.5C-103.4 -138.5 -51.7 -153.4 -0.1 -153.3C51.5 -153.2 103 -138.2 130.5 -103.9Z" fill="#FFBD35"></path></g></g></svg>